<svg xmlns="http://www.w3.org/2000/svg" viewBox="0 0 680 360">
  <defs>
    <linearGradient id="p" x1="80" y1="30" x2="590" y2="330" gradientUnits="userSpaceOnUse">
      <stop stop-color="#4f46e5" stop-opacity=".9"/>
      <stop offset="1" stop-color="#0d9488" stop-opacity=".7"/>
    </linearGradient>
    <filter id="s" x="-20%" y="-20%" width="140%" height="140%">
      <feDropShadow dx="0" dy="14" stdDeviation="18" flood-color="#020617" flood-opacity=".25"/>
    </filter>
  </defs>
  <path d="M78 290C38 222 69 106 168 58c105-51 185 17 275 2 93-16 166 41 165 123-1 90-85 151-196 148-112-3-269 25-334-41Z" fill="url(#p)" opacity=".34"/>
  <g filter="url(#s)">
    <rect x="118" y="62" width="444" height="242" rx="20" fill="#fff"/>
    <rect x="118" y="62" width="112" height="242" rx="20" fill="#071a35"/>
    <rect x="230" y="62" width="332" height="52" rx="20" fill="#f8fafc"/>
    <circle cx="258" cy="88" r="9" fill="#4f46e5"/>
    <rect x="280" y="81" width="88" height="13" rx="6" fill="#cbd5e1"/>
    <rect x="142" y="94" width="56" height="9" rx="4" fill="#5eead4" opacity=".9"/>
    <rect x="142" y="128" width="64" height="8" rx="4" fill="#94a3b8"/>
    <rect x="142" y="156" width="48" height="8" rx="4" fill="#94a3b8"/>
    <rect x="142" y="184" width="59" height="8" rx="4" fill="#94a3b8"/>
    <rect x="142" y="212" width="42" height="8" rx="4" fill="#94a3b8"/>
    <rect x="254" y="138" width="82" height="62" rx="12" fill="#eef2ff"/>
    <rect x="352" y="138" width="82" height="62" rx="12" fill="#ecfdf5"/>
    <rect x="450" y="138" width="82" height="62" rx="12" fill="#fffbeb"/>
    <path d="M267 183l14-17 12 8 18-25 12 12" fill="none" stroke="#4f46e5" stroke-width="5" stroke-linecap="round" stroke-linejoin="round"/>
    <circle cx="393" cy="168" r="19" fill="none" stroke="#0d9488" stroke-width="9" stroke-dasharray="78 42"/>
    <path d="M470 181v-19m16 19v-31m16 31v-42" stroke="#d97706" stroke-width="8" stroke-linecap="round"/>
    <rect x="254" y="220" width="278" height="12" rx="6" fill="#e2e8f0"/>
    <rect x="254" y="246" width="218" height="12" rx="6" fill="#e2e8f0"/>
    <rect x="254" y="272" width="248" height="12" rx="6" fill="#e2e8f0"/>
  </g>
  <circle cx="92" cy="93" r="18" fill="#fbbf24"/>
  <circle cx="588" cy="274" r="24" fill="#2dd4bf"/>
</svg>
